<?xml version="1.0" encoding="utf-8"?>
<svg version="1.1" xmlns:xlink="http://www.w3.org/1999/xlink" width="750px" height="240px" xmlns="http://www.w3.org/2000/svg">
  <g>
    <path d="M 0 0  L 750 0  L 750 240  L 0 240  L 0 0  " fill-rule="nonzero" fill="#cccccc" stroke="none" />
    <path d="M 17 17  L 733 17  L 733 223  L 17 223  L 17 17  " fill-rule="nonzero" fill="#ffffff" stroke="none" />
    <path d="M 408 72  C 397.92 72  390 64.08  390 54  C 390 43.92  397.92 36  408 36  C 418.08 36  426 43.92  426 54  C 426 64.08  418.08 72  408 72  " fill-rule="nonzero" fill="#cccccc" stroke="none" />
    <path d="M 23 217  L 23 110.3  L 199 61.8  L 445.4 179.752  L 586.2 90.9  L 727 179.752  L 727 217  L 23 217  " fill-rule="nonzero" fill="#169bd5" stroke="none" />
  </g>
</svg>