<?xml version="1.0" encoding="utf-8"?>
<svg version="1.1" xmlns:xlink="http://www.w3.org/1999/xlink" width="42px" height="44px" xmlns="http://www.w3.org/2000/svg">
  <g transform="matrix(1 0 0 1 -548 -1061 )">
    <path d="M 40.416 25.414  C 41.196 24.632  41.196 23.368  40.414 22.586  C 39.632 21.804  38.368 21.804  37.586 22.586  L 23 37.172  L 23 2  C 23 0.896000000000001  22.104 0  21 0  C 19.896 0  19 0.896000000000001  19 2  L 19 37.172  L 4.414 22.586  C 3.632 21.804  2.368 21.804  1.586 22.586  C 0.804 23.368  0.804 24.632  1.586 25.414  L 19.586 43.412  C 19.77 43.598  19.992 43.744  20.238 43.846  C 20.48 43.948  20.74 44  21 44  C 21.26 44  21.52 43.948  21.764 43.846  C 22.01 43.744  22.23 43.598  22.416 43.412  L 40.416 25.414  Z " fill-rule="nonzero" fill="#ffffff" stroke="none" transform="matrix(1 0 0 1 548 1061 )" />
  </g>
</svg>