<?xml version="1.0" encoding="utf-8"?>
<svg version="1.1" xmlns:xlink="http://www.w3.org/1999/xlink" width="10px" height="10px" xmlns="http://www.w3.org/2000/svg">
  <g transform="matrix(1 0 0 1 0 -2 )">
    <path d="M 5 2  C 7.8 2  10 4.2  10 7  C 10 9.8  7.8 12  5 12  C 2.2 12  0 9.8  0 7  C 0 4.2  2.2 2  5 2  Z " fill-rule="nonzero" fill="#cccccc" stroke="none" />
    <path d="M 5 2.5  C 7.52 2.5  9.5 4.48  9.5 7  C 9.5 9.52  7.52 11.5  5 11.5  C 2.48 11.5  0.5 9.52  0.5 7  C 0.5 4.48  2.48 2.5  5 2.5  Z " stroke-width="1" stroke="#797979" fill="none" />
  </g>
</svg>