<?xml version="1.0" encoding="utf-8"?>
<svg version="1.1" xmlns:xlink="http://www.w3.org/1999/xlink" width="10px" height="10px" xmlns="http://www.w3.org/2000/svg">
  <g transform="matrix(1 0 0 1 -51 -2 )">
    <path d="M 56 2  C 58.8 2  61 4.2  61 7  C 61 9.8  58.8 12  56 12  C 53.2 12  51 9.8  51 7  C 51 4.2  53.2 2  56 2  Z " fill-rule="nonzero" fill="#ffffff" stroke="none" />
    <path d="M 56 2.5  C 58.52 2.5  60.5 4.48  60.5 7  C 60.5 9.52  58.52 11.5  56 11.5  C 53.48 11.5  51.5 9.52  51.5 7  C 51.5 4.48  53.48 2.5  56 2.5  Z " stroke-width="1" stroke="#797979" fill="none" />
  </g>
</svg>