<?xml version="1.0" encoding="utf-8"?>
<svg version="1.1" xmlns:xlink="http://www.w3.org/1999/xlink" width="232px" height="167px" xmlns="http://www.w3.org/2000/svg">
  <g transform="matrix(1 0 0 1 -494 -487 )">
    <path d="M 494 487  L 726 487  L 726 654  L 494 654  L 494 487  " fill-rule="nonzero" fill="#cccccc" stroke="none" />
    <path d="M 506 499  L 714 499  L 714 642  L 506 642  L 506 499  " fill-rule="nonzero" fill="#ffffff" stroke="none" />
    <path d="M 627.165 537.1  C 620.151 537.1  614.64 531.589  614.64 524.575  C 614.64 517.561  620.151 512.05  627.165 512.05  C 634.179 512.05  639.69 517.561  639.69 524.575  C 639.69 531.589  634.179 537.1  627.165 537.1  " fill-rule="nonzero" fill="#cccccc" stroke="none" />
    <path d="M 510 638  L 510 563.75  L 560 530  L 630 579.693965517241  L 670 550.25  L 710 579.693965517241  L 710 638  L 510 638  " fill-rule="nonzero" fill="#169bd5" stroke="none" />
  </g>
</svg>