<?xml version="1.0" encoding="utf-8"?>
<svg version="1.1" xmlns:xlink="http://www.w3.org/1999/xlink" width="48px" height="44px" xmlns="http://www.w3.org/2000/svg">
  <g transform="matrix(1 0 0 1 -351 -1248 )">
    <path d="M 47.2456721113128 17.5657156684815  L 26.6892873563219 1.21145069570468  C 25.0992716273443 -0.0378511796733392  22.6007211131276 -0.0378511796733392  21.01070538415 1.21145069570468  L 0.454320629159156 17.5657156684815  C 5.32365396566092E-05 17.9064295220811  -0.113553539019961 18.7014107683001  0.227160314579521 19.1557313974591  C 0.567874168179117 19.6099987900787  1.36285541439804 19.7236055656382  1.81717604355714 19.3828917120386  L 22.3735607985481 2.91507320024198  C 23.1685420447671 2.34719903206292  24.5313974591651 2.34719903206292  25.2128251663642 2.91507320024198  L 45.7692099213551 19.2693381730188  C 46.1099237749546 19.4964984875983  46.3370840895342 19.4964984875983  46.5641911675741 19.4964984875983  C 46.9049050211736 19.4964984875983  47.2456188747732 19.3829449485783  47.4727791893527 19.0422310949789  C 47.8134930429522 18.5879637023593  47.8134930429522 17.9065359951603  47.2456188747732 17.5658221415608  Z M 43.1571058681186 21.7678354506958  C 42.4756781609196 21.7678354506958  42.0214107683001 22.2221028433152  42 22.9035305505142  L 42 39.4849558378706  C 42.0214107683001 40.5070973986692  41.5671433756806 41.0749715668483  40.5450018148821 41  L 29.6421584996975 41  L 29.6421584996975 34.0335341802784  C 29.6421584996975 30.9671094978827  27.143607985481 28.5821125226861  24.0771833030853 28.5821125226861  L 23.8500229885058 28.5821125226861  C 20.7835983061102 28.5821125226861  18.2850477918935 31.0806630369027  18.2850477918935 34.0335341802784  L 18.2850477918935 41  L 7.38220447670898 41  C 6.36006291591048 41.0749715668483  5.67863520871146 40.5070973986692  6 39.4849558378706  L 6 22.9035305505142  C 5.67863520871146 22.2221028433152  5.22436781609196 21.7678354506958  4.54294010889294 21.7678354506958  C 3.86151240169386 21.7678354506958  3.40724500907436 22.2221028433152  4 22.9035305505142  L 4 39.4849558378706  C 3.40724500907436 41.7563992740472  5.110814277072 43.3463617664852  7.38225771324863 43  L 19.4207961282517 43  C 20.1022238354507 43.3463617664852  20.5564912280702 42.8920943738657  20.5564912280702 42.2106666666667  L 20.5564912280702 34.0335341802784  C 20.5564912280702 32.3299649122807  22.0329001814882 30.8535559588627  23.8500762250454 30.8535559588627  L 24.0772365396249 30.8535559588627  C 25.8943593466425 30.8535559588627  27.3708215366001 32.3299649122807  27.3708215366001 34.0335341802784  L 27.3708215366001 42.2106666666667  C 27.3708215366001 42.8920943738657  27.8250889292196 43.3463617664852  28.5065166364186 43  L 40.5450550514217 43  C 42.8164984875983 43.3463617664852  44.2929074410163 41.7563460375076  44 39.4849558378706  L 44 22.9035305505142  C 44.2929074410163 22.3356563823352  43.8386400483968 21.7678354506958  43.1572123411978 21.7678354506958  Z " fill-rule="nonzero" fill="#999999" stroke="none" transform="matrix(1 0 0 1 351 1248 )" />
  </g>
</svg>