<?xml version="1.0" encoding="utf-8"?>
<svg version="1.1" xmlns:xlink="http://www.w3.org/1999/xlink" width="39px" height="44px" xmlns="http://www.w3.org/2000/svg">
  <g transform="matrix(1 0 0 1 -656 -1248 )">
    <path d="M 19.7185185185185 29.3333333333334  C 27.7037037037037 29.3333333333334  34.2222222222222 22.8148148148148  34.2222222222222 14.6666666666666  C 34.2222222222222 6.51851851851848  27.7037037037037 0  19.5555555555555 0  C 11.4074074074074 0  4.88888888888891 6.51851851851848  4.88888888888891 14.6666666666666  C 4.88888888888891 20.2074074074075  7.82222222222219 24.9333333333333  12.3851851851852 27.3777777777777  C 6.19259259259263 29.8222222222222  1.4666666666667 35.2  0.162962962962979 42.0444444444445  C 0 42.8592592592593  0.488888888888937 43.837037037037  1.4666666666667 44  L 1.79259259259254 44  C 2.60740740740744 44  3.25925925925924 43.5111111111111  3.42222222222222 42.6962962962963  C 4.88888888888891 35.0370370370371  11.5703703703704 29.4962962962964  19.3925925925926 29.3333333333334  L 19.7185185185185 29.3333333333334  Z M 19.2296296296296 26.074074074074  C 13.0370370370371 25.9111111111112  8.14814814814815 20.8592592592593  8.14814814814815 14.6666666666666  C 8.14814814814815 8.31111111111113  13.2 3.25925925925924  19.5555555555555 3.25925925925924  C 25.911111111111 3.25925925925924  30.9629629629629 8.31111111111113  30.9629629629629 14.6666666666666  C 30.9629629629629 20.8592592592593  25.911111111111 25.9111111111112  19.7185185185185 26.074074074074  L 19.2296296296296 26.074074074074  Z M 38.9481481481481 42.0444444444445  C 37.9703703703703 36.9925925925926  34.8740740740741 32.5925925925926  30.3111111111111 29.4962962962964  C 29.4962962962962 29.0074074074074  28.5185185185185 29.1703703703704  28.0296296296297 29.9851851851852  C 27.5407407407407 30.8  27.7037037037037 31.7777777777778  28.5185185185185 32.2666666666667  C 32.2666666666667 34.8740740740741  34.8740740740741 38.4592592592593  35.6888888888889 42.6962962962963  C 35.8518518518518 43.5111111111111  36.5037037037037 44  37.3185185185185 44  L 37.6444444444444 44  C 38.4592592592593 43.837037037037  39.1111111111111 43.0222222222222  38.9481481481481 42.0444444444445  Z " fill-rule="nonzero" fill="#999999" stroke="none" transform="matrix(1 0 0 1 656 1248 )" />
  </g>
</svg>