<?xml version="1.0" encoding="utf-8"?>
<svg version="1.1" xmlns:xlink="http://www.w3.org/1999/xlink" width="20px" height="22px" xmlns="http://www.w3.org/2000/svg">
  <g transform="matrix(1 0 0 1 -305 -34 )">
    <path d="M 19.5393939318182 21.786666675  C 19.6848484772727 21.626666675  19.7333333181818 21.306666675  19.5393939318182 21.093333325  L 16.1454545454545 17.253333325  C 17.7454545454545 15.333333325  18.666666659091 12.826666675  18.666666659091 10.266666675  C 18.666666659091 4.66666667499999  14.5454545454545 0.133333349999987  9.45454545454543 0.133333325000024  C 4.36363636363632 0.133333300000004  0.242424250000009 4.66666667499999  0.242424250000009 10.266666675  C 0.242424250000009 15.866666675  4.36363636363632 20.4  9.45454545454543 20.4  C 10.9090909090909 20.4  12.3151515227273 20.026666675  13.6242424318182 19.333333325  C 13.8666666818182 19.22666665  13.9636363636364 18.90666665  13.8181818181819 18.64  C 13.7212121136364 18.373333325  13.3818181818182 18.266666675  13.1878787954546 18.426666675  C 12.0242424318182 19.066666675  10.7636363636364 19.386666675  9.45454545454543 19.386666675  C 4.89696970454547 19.386666675  1.21212120454547 15.33333335  1.21212120454547 10.32  C 1.21212120454547 5.30666665000001  4.89696970454547 1.19999999999999  9.45454545454543 1.19999999999999  C 14.0121212045455 1.19999999999999  17.6969697045454 5.25333332499997  17.6969697045454 10.266666675  C 17.6969697045454 12.77333335  16.7272727272727 15.17333335  15.0787878863636 16.88  C 14.8848485 17.093333325  14.8848485 17.413333325  15.0787878863636 17.626666675  C 15.1272727272727 17.68  15.1757575909091 17.73333335  15.2727272727272 17.733333325  L 18.8606060681818 21.786666675  C 18.9575757727272 21.89333335  19.1030303181819 21.946666675  19.2 21.946666675  C 19.3454545454545 21.946666675  19.44242425 21.89333335  19.5393939318182 21.786666675  Z " fill-rule="nonzero" fill="#797979" stroke="none" transform="matrix(1 0 0 1 305 34 )" />
  </g>
</svg>