<?xml version="1.0" encoding="utf-8"?>
<svg version="1.1" xmlns:xlink="http://www.w3.org/1999/xlink" width="22px" height="22px" xmlns="http://www.w3.org/2000/svg">
  <g transform="matrix(1 0 0 1 -36 -34 )">
    <path d="M 21.493333325 21.786666675  C 21.6533333249999 21.626666675  21.70666665 21.306666675  21.493333325 21.093333325  L 17.76 17.253333325  C 19.52 15.333333325  20.5333333250001 12.826666675  20.5333333250001 10.266666675  C 20.5333333250001 4.66666667499999  16 0.133333349999987  10.4 0.133333325000024  C 4.79999999999995 0.133333300000004  0.26666667500001 4.66666667499999  0.26666667500001 10.266666675  C 0.26666667500001 15.866666675  4.79999999999995 20.4  10.4 20.4  C 12 20.4  13.546666675 20.026666675  14.986666675 19.333333325  C 15.25333335 19.22666665  15.36 18.90666665  15.2 18.64  C 15.093333325 18.373333325  14.72 18.266666675  14.506666675 18.426666675  C 13.226666675 19.066666675  11.84 19.386666675  10.4 19.386666675  C 5.38666667500001 19.386666675  1.33333332500001 15.33333335  1.33333332500001 10.32  C 1.33333332500001 5.30666665000001  5.38666667500001 1.19999999999999  10.4 1.19999999999999  C 15.4133333250001 1.19999999999999  19.4666666749999 5.25333332499997  19.4666666749999 10.266666675  C 19.4666666749999 12.77333335  18.4 15.17333335  16.5866666749999 16.88  C 16.3733333500001 17.093333325  16.3733333500001 17.413333325  16.5866666749999 17.626666675  C 16.64 17.68  16.69333335 17.73333335  16.8 17.733333325  L 20.746666675 21.786666675  C 20.85333335 21.89333335  21.01333335 21.946666675  21.12 21.946666675  C 21.28 21.946666675  21.386666675 21.89333335  21.493333325 21.786666675  Z " fill-rule="nonzero" fill="#797979" stroke="none" transform="matrix(1 0 0 1 36 34 )" />
  </g>
</svg>