<?xml version="1.0" encoding="utf-8"?>
<svg version="1.1" xmlns:xlink="http://www.w3.org/1999/xlink" width="18px" height="32px" xmlns="http://www.w3.org/2000/svg">
  <g transform="matrix(1 0 0 1 -40 -82 )">
    <path d="M 17.284353755102 31.5646258367347  C 17.0231292653061 31.9129251428571  16.6748299591837 32  16.3265306122449 32  C 15.9782313061224 32  15.6299319591837 31.9129251836735  15.4557823265306 31.6517006938776  L 0.65306122448979 17.284353755102  C 0.391836734693882 17.0231292653061  0.217687061224481 16.6748299591837  0.217687061224481 16.3265306122449  C 0.217687061224481 15.9782313061224  0.391836734693868 15.6299319591837  0.65306122448979 15.3687074693877  L 15.5428571428571 1.00136053061225  C 16.065306122449 0.478911551020403  16.8489795918367 0.478911551020403  17.3714285714286 1.00136053061225  C 17.8938775510204 1.52380951020407  17.8938775510204 2.30748297959184  17.3714285714286 2.82993195918367  L 3.43945579591836 16.3265306122449  L 17.284353755102 29.7360544081633  C 17.8068027346939 30.2585033877551  17.8068027346939 31.0421768571429  17.284353755102 31.5646258367347  Z " fill-rule="nonzero" fill="#ffffff" stroke="none" transform="matrix(1 0 0 1 40 82 )" />
  </g>
</svg>